<svg width="566" height="1761" viewBox="0 0 566 1761" fill="none" xmlns="http://www.w3.org/2000/svg">
<g clip-path="url(#clip0_16_32)">
<rect width="566" height="1761" fill="#301446"/>
<path d="M87.4267 122.781C88.1725 123.501 88.5452 124.486 88.5448 125.735C88.5448 127.046 88.1721 128.062 87.4267 128.782C86.6814 129.502 85.5629 129.861 84.0713 129.859H79.0262V121.703H84.0713C85.5629 121.703 86.6814 122.062 87.4267 122.781Z" fill="#F4F4F4"/>
<path d="M84 99C65.7746 99 51 113.551 51 131.5C51 149.449 65.7746 164 84 164C102.225 164 117 149.449 117 131.5C117 113.551 102.225 99 84 99ZM87.927 147.953L80.9772 135.531H79.0262V147.953H70.8871V115.047H84.5478C87.1812 115.047 89.4261 115.5 91.2824 116.406C93.1384 117.313 94.5266 118.555 95.447 120.133C96.3746 121.738 96.8512 123.558 96.8278 125.406C96.8556 127.507 96.1961 129.562 94.9468 131.266C93.6928 132.985 91.8448 134.203 89.4028 134.922L97.1129 147.953H87.927Z" fill="#F4F4F4"/>
<path d="M150.335 148.674C150.229 149.558 149.857 150.283 149.221 150.849C148.585 151.414 147.895 151.768 147.152 151.909C146.41 152.086 145.72 152.015 145.084 151.697C144.483 151.379 144.165 150.743 144.129 149.788C143.952 145.722 143.864 141.514 143.864 137.165C143.864 132.78 143.864 128.431 143.864 124.117C143.298 123.905 142.874 123.587 142.591 123.162C142.308 122.738 142.131 122.278 142.061 121.783C142.025 121.253 142.096 120.723 142.273 120.192C142.45 119.662 142.715 119.202 143.069 118.813C143.457 118.389 143.988 118 144.66 117.646C145.331 117.293 146.056 116.975 146.834 116.692C147.648 116.373 148.443 116.108 149.221 115.896C149.999 115.684 150.653 115.525 151.183 115.419C153.411 114.959 155.656 114.977 157.919 115.472C160.182 115.931 162.162 116.78 163.86 118.018C165.592 119.255 166.883 120.864 167.731 122.844C168.58 124.824 168.669 127.087 167.997 129.633C167.785 130.34 167.519 131.048 167.201 131.755C166.883 132.462 166.512 133.116 166.087 133.717C165.486 134.636 164.779 135.45 163.966 136.157C163.152 136.864 162.269 137.518 161.314 138.119C161.986 138.827 162.622 139.569 163.223 140.347C163.824 141.125 164.496 141.832 165.239 142.469C165.522 142.716 165.928 143.105 166.459 143.635C167.024 144.166 167.555 144.731 168.05 145.333C168.58 145.934 169.04 146.535 169.429 147.136C169.818 147.702 169.994 148.179 169.959 148.568C169.924 149.24 169.729 149.841 169.376 150.371C169.057 150.937 168.651 151.361 168.156 151.644C167.696 151.962 167.183 152.122 166.618 152.122C166.052 152.122 165.486 151.927 164.92 151.538C164.284 151.043 163.683 150.46 163.117 149.788C162.551 149.116 162.003 148.497 161.473 147.931C160.306 146.659 159.157 145.386 158.025 144.113C156.929 142.804 155.798 141.531 154.631 140.294C153.924 140.435 153.199 140.541 152.456 140.612C151.749 140.648 151.042 140.701 150.335 140.771V148.303V148.674ZM159.829 123.003C158.414 122.155 156.859 121.677 155.161 121.571C153.499 121.465 151.891 121.695 150.335 122.261V134.248C151.926 134.141 153.482 133.947 155.002 133.664C156.558 133.346 157.99 132.674 159.298 131.649C160.006 131.083 160.571 130.429 160.996 129.686C161.455 128.908 161.72 128.13 161.791 127.352C161.897 126.539 161.791 125.761 161.473 125.019C161.19 124.241 160.642 123.569 159.829 123.003ZM173.516 137.324C173.764 136.298 174.1 135.291 174.524 134.301C174.984 133.31 175.532 132.373 176.168 131.49C176.805 130.57 177.512 129.739 178.29 128.997C179.103 128.254 179.969 127.653 180.889 127.193C182.515 126.345 184.142 125.92 185.768 125.92C187.43 125.885 188.968 126.203 190.383 126.875C191.797 127.547 192.999 128.555 193.989 129.898C194.979 131.207 195.633 132.78 195.952 134.619C196.128 135.821 196.217 136.97 196.217 138.066C196.252 139.127 196.146 140.241 195.899 141.408C195.545 143.07 194.82 144.731 193.724 146.393C192.663 148.02 191.373 149.381 189.852 150.477C188.367 151.609 186.723 152.351 184.92 152.705C183.152 153.059 181.366 152.776 179.563 151.856C178.749 151.467 178.007 151.008 177.335 150.477C176.699 149.982 176.115 149.381 175.585 148.674C174.984 147.896 174.506 147.083 174.153 146.234C173.835 145.386 173.569 144.502 173.357 143.582C173.11 142.592 173.021 141.602 173.092 140.612C173.163 139.587 173.286 138.597 173.463 137.642L173.516 137.324ZM179.881 138.438C179.775 139.003 179.686 139.569 179.616 140.135C179.545 140.665 179.545 141.213 179.616 141.779C179.722 142.592 179.934 143.335 180.252 144.007C180.606 144.678 181.048 145.209 181.578 145.598C182.144 145.987 182.78 146.199 183.488 146.234C184.195 146.234 184.955 146.004 185.768 145.545C186.794 144.944 187.678 144.024 188.42 142.787C189.163 141.514 189.622 140.206 189.799 138.862C189.976 137.483 189.835 136.192 189.375 134.99C188.915 133.752 188.014 132.869 186.67 132.338C185.786 132.338 184.973 132.515 184.23 132.869C183.488 133.187 182.833 133.629 182.268 134.194C181.737 134.725 181.26 135.361 180.836 136.104C180.447 136.846 180.128 137.624 179.881 138.438ZM224.349 145.757C224.95 146.782 225.145 147.702 224.933 148.515C224.756 149.328 224.367 149.929 223.766 150.318C223.165 150.743 222.422 150.902 221.538 150.796C220.69 150.725 219.859 150.283 219.045 149.47C218.197 150.071 217.313 150.53 216.393 150.849C215.474 151.202 214.502 151.503 213.476 151.75C211.885 152.104 210.347 152.069 208.862 151.644C207.412 151.255 206.122 150.601 204.99 149.682C203.859 148.762 202.939 147.631 202.232 146.287C201.525 144.908 201.136 143.423 201.065 141.832C200.959 140.064 201.083 138.367 201.436 136.74C201.825 135.114 202.427 133.629 203.24 132.285C204.053 130.941 205.114 129.792 206.422 128.838C207.766 127.883 209.339 127.211 211.143 126.822C212.203 126.61 213.264 126.504 214.325 126.504C215.421 126.504 216.499 126.592 217.56 126.769C217.525 125.991 217.49 125.107 217.454 124.117C217.454 123.092 217.454 122.102 217.454 121.147C217.454 120.192 217.49 119.344 217.56 118.601C217.631 117.823 217.719 117.275 217.825 116.957C218.073 116.32 218.444 115.843 218.939 115.525C219.47 115.171 220.018 114.994 220.583 114.994C221.149 114.959 221.697 115.101 222.228 115.419C222.793 115.702 223.235 116.144 223.554 116.745C223.624 116.922 223.713 117.098 223.819 117.275C223.925 117.417 223.978 117.576 223.978 117.752C224.013 122.385 224.013 126.964 223.978 131.49C223.978 136.015 223.978 140.594 223.978 145.227C224.119 145.439 224.243 145.615 224.349 145.757ZM216.977 142.84C217.048 142.734 217.171 142.628 217.348 142.522C217.56 142.415 217.666 142.274 217.666 142.097C217.666 140.612 217.666 139.162 217.666 137.748C217.666 136.298 217.649 134.831 217.613 133.346C216.765 133.169 215.881 133.063 214.961 133.028C214.042 132.992 213.14 133.081 212.256 133.293C211.408 133.505 210.612 133.859 209.87 134.354C209.162 134.849 208.597 135.556 208.172 136.475C207.96 137.147 207.766 137.819 207.589 138.491C207.412 139.162 207.306 139.817 207.271 140.453C207.271 141.09 207.359 141.726 207.536 142.362C207.713 142.964 208.013 143.547 208.438 144.113C208.579 144.254 208.738 144.396 208.915 144.537C209.127 144.678 209.516 144.926 210.082 145.28C211.39 145.386 212.628 145.262 213.794 144.908C214.997 144.555 216.057 143.865 216.977 142.84ZM252.918 145.863C253.237 146.323 253.413 146.871 253.449 147.507C253.519 148.108 253.449 148.692 253.237 149.257C253.06 149.788 252.741 150.23 252.282 150.583C251.858 150.937 251.292 151.096 250.585 151.061C249.665 150.99 248.923 150.672 248.357 150.106C247.791 149.54 247.261 148.904 246.766 148.197C245.387 149.328 243.955 150.106 242.47 150.53C241.02 150.99 239.588 151.096 238.174 150.849C236.759 150.601 235.433 150.018 234.196 149.098C232.958 148.144 231.915 146.871 231.066 145.28C230.288 143.794 229.846 142.15 229.74 140.347C229.67 138.544 229.652 136.829 229.687 135.202C229.687 134.636 229.705 134.088 229.74 133.558C229.776 132.992 229.811 132.409 229.846 131.808C229.882 131.348 229.899 130.906 229.899 130.482C229.899 130.022 229.917 129.598 229.953 129.209C230.023 128.82 230.129 128.431 230.271 128.042C230.448 127.653 230.695 127.282 231.013 126.928C231.438 126.469 231.95 126.203 232.551 126.133C233.153 126.027 233.718 126.08 234.249 126.292C234.814 126.504 235.292 126.84 235.681 127.299C236.105 127.724 236.335 128.254 236.37 128.891C236.441 130.694 236.388 132.515 236.211 134.354C236.07 136.192 236.087 137.996 236.264 139.764C236.335 140.612 236.547 141.478 236.901 142.362C237.29 143.246 237.891 143.883 238.704 144.272C239.517 144.625 240.33 144.608 241.144 144.219C241.992 143.794 242.682 143.299 243.212 142.734C243.46 142.451 243.69 142.15 243.902 141.832C244.149 141.478 244.414 141.178 244.697 140.93C244.556 139.693 244.467 138.455 244.432 137.218C244.397 135.98 244.397 134.743 244.432 133.505C244.432 132.833 244.45 132.108 244.485 131.33C244.556 130.517 244.697 129.757 244.909 129.05C245.157 128.307 245.511 127.671 245.97 127.14C246.43 126.575 247.084 126.221 247.933 126.08C248.322 126.009 248.693 126.044 249.046 126.186C249.435 126.327 249.771 126.522 250.054 126.769C250.549 127.193 250.885 127.671 251.062 128.201C251.239 128.731 251.327 129.297 251.327 129.898C251.327 130.499 251.274 131.118 251.168 131.755C251.097 132.356 251.044 132.922 251.009 133.452C250.938 134.442 250.885 135.485 250.85 136.581C250.814 137.677 250.85 138.773 250.956 139.87C251.062 140.966 251.256 142.027 251.539 143.052C251.858 144.077 252.317 145.014 252.918 145.863ZM265.251 148.621C265.145 149.399 264.862 150.071 264.402 150.636C263.943 151.202 263.412 151.591 262.811 151.803C262.21 152.015 261.591 152.015 260.955 151.803C260.318 151.591 259.788 151.114 259.364 150.371C259.187 150.088 259.046 149.788 258.939 149.47C258.833 149.151 258.78 148.833 258.78 148.515V134.566C258.109 134.566 257.49 134.389 256.924 134.035C256.394 133.646 255.987 133.187 255.704 132.656C255.457 132.091 255.368 131.507 255.439 130.906C255.51 130.27 255.793 129.686 256.288 129.156C256.641 128.767 257.012 128.519 257.401 128.413C257.826 128.272 258.268 128.183 258.727 128.148C258.692 127.052 258.657 125.973 258.621 124.913C258.621 123.852 258.71 122.791 258.886 121.73C259.099 120.069 259.594 118.654 260.372 117.487C261.149 116.32 262.104 115.419 263.236 114.782C264.402 114.146 265.693 113.775 267.107 113.669C268.522 113.562 269.989 113.775 271.51 114.305C272.146 114.517 272.747 114.782 273.313 115.101C273.914 115.419 274.444 115.825 274.904 116.32C275.222 116.674 275.452 117.098 275.594 117.593C275.735 118.053 275.753 118.53 275.647 119.025C275.576 119.485 275.399 119.927 275.116 120.351C274.869 120.74 274.497 121.041 274.002 121.253C273.331 121.536 272.659 121.607 271.987 121.465C271.351 121.324 270.714 121.094 270.078 120.776C269.689 120.634 269.317 120.493 268.964 120.351C268.61 120.21 268.239 120.104 267.85 120.033C267.461 119.962 267.107 120.015 266.789 120.192C266.471 120.369 266.188 120.617 265.941 120.935C265.728 121.218 265.552 121.554 265.41 121.943C265.304 122.296 265.251 122.65 265.251 123.003C265.216 123.817 265.198 124.648 265.198 125.496C265.233 126.309 265.251 127.123 265.251 127.936C265.781 127.901 266.347 127.865 266.948 127.83C267.549 127.794 268.133 127.777 268.699 127.777C269.3 127.777 269.848 127.794 270.343 127.83C270.838 127.865 271.227 127.936 271.51 128.042C272.075 128.254 272.535 128.59 272.889 129.05C273.242 129.474 273.472 129.951 273.578 130.482C273.684 130.977 273.631 131.49 273.419 132.02C273.242 132.55 272.906 133.01 272.411 133.399C271.952 133.752 271.421 134 270.82 134.141C270.219 134.283 269.583 134.389 268.911 134.46C268.239 134.495 267.585 134.513 266.948 134.513C266.312 134.477 265.746 134.46 265.251 134.46V148.621ZM294.208 126.61C294.632 125.903 295.163 125.425 295.799 125.178C296.436 124.895 297.055 124.824 297.656 124.966C298.292 125.107 298.84 125.425 299.3 125.92C299.795 126.415 300.095 127.07 300.202 127.883C300.272 128.484 300.148 129.333 299.83 130.429C299.547 131.525 299.176 132.656 298.716 133.823C298.292 134.99 297.85 136.104 297.39 137.165C296.931 138.225 296.56 139.056 296.277 139.657C295.074 142.309 293.766 144.908 292.352 147.454C290.937 150 289.488 152.528 288.003 155.039C287.79 155.428 287.543 155.905 287.26 156.471C286.977 157.036 286.677 157.62 286.358 158.221C286.076 158.822 285.775 159.388 285.457 159.918C285.139 160.449 284.838 160.838 284.555 161.085C283.919 161.686 283.265 162.04 282.593 162.146C281.921 162.252 281.302 162.164 280.736 161.881C280.206 161.598 279.764 161.156 279.41 160.555C279.092 159.954 278.968 159.229 279.039 158.38C279.074 158.062 279.216 157.638 279.463 157.107C279.711 156.612 279.994 156.082 280.312 155.516C280.63 154.986 280.948 154.473 281.267 153.978C281.585 153.483 281.832 153.076 282.009 152.758C282.716 151.591 283.388 150.424 284.025 149.257C284.697 148.091 285.368 146.924 286.04 145.757C283.707 143.812 281.673 141.655 279.941 139.286C278.244 136.882 276.935 134.248 276.016 131.383C275.839 130.888 275.662 130.393 275.486 129.898C275.309 129.403 275.256 128.891 275.326 128.36C275.397 127.759 275.556 127.229 275.804 126.769C276.087 126.274 276.44 125.885 276.865 125.602C277.289 125.284 277.766 125.107 278.297 125.072C278.862 125.036 279.428 125.16 279.994 125.443C280.453 125.691 280.807 126.044 281.055 126.504C281.337 126.928 281.567 127.406 281.744 127.936C281.921 128.431 282.062 128.944 282.168 129.474C282.31 130.004 282.469 130.482 282.646 130.906C284.06 134.407 286.199 137.394 289.063 139.87C290.089 137.748 291.008 135.627 291.821 133.505C292.635 131.348 293.36 129.156 293.996 126.928L294.208 126.61Z" fill="#F4F4F4"/>
<path d="M878.227 397.528L121.414 472.189L-86.5474 1317.55" stroke="#EA7052" stroke-opacity="0.6" stroke-width="18"/>
<path d="M877.931 1068.88L121.118 1143.54L-86.843 1988.9" stroke="#EA7052" stroke-opacity="0.6" stroke-width="18"/>
<path d="M1027.93 1543.88L271.118 1618.54L63.157 2463.9" stroke="#EA7052" stroke-opacity="0.6" stroke-width="18"/>
</g>
<defs>
<clipPath id="clip0_16_32">
<rect width="566" height="1761" fill="white"/>
</clipPath>
</defs>
</svg>
